<?xml version="1.0" encoding="iso-8859-1"?>
<!-- Uploaded to: SVGRepo, www.svgrepo.com, Transformed by: SVGRepo Tools -->
<svg fill="#000000" height="auto" width="auto" version="1.1" id="Capa_1" xmlns="http://www.w3.org/2000/svg" xmlns:xlink="http://www.w3.org/1999/xlink" 
	 viewBox="0 0 419.995 419.995">
	 <!-- xml:space="preserve" -->
<g>
	<g id="Layer_1_10_">
		<g>
			<g>
				<path d="M415.979,299.952l-44.321-63.859c-5.719-8.217-16.277-12.271-26.396-9.256l-1.575,0.469l-47.796,14.238l40.885-135.209
					c3.241-11.048-2.402-23.029-13.32-27.334c-11.562-4.558-24.629,1.119-29.187,12.681l-48.562,123.183
					c-30.791-6.835-74.818-15.772-97.046-16.394c-36.151-1.011-77.735,55.655-70.238,80.563l29.053,65.74l0.998,2.258
					c1.437,3.245,3.974,6.024,7.402,7.722l57.09,28.254c6.608,3.279,14.795,1.28,19.086-4.979
					c4.699-6.854,2.951-16.222-3.905-20.919l-45.809-31.399l-13.825-44.465c0,0,109.692,39.354,137.203,28.422l77.627-28.983
					l36.531,46.069c7.319,9.187,20.659,11.297,30.448,4.502C420.53,324.171,423.061,310.157,415.979,299.952z"/>
			</g>
			<g>
				<circle cx="52.919" cy="191.368" r="52.919"/>
			</g>
			<path d="M234.754,35.426c-24.813,0-45,20.187-45,45s20.187,45,45,45s45-20.188,45-45
				C279.754,55.613,259.567,35.426,234.754,35.426z M266.415,94.189l-7.946-13.763l7.946-13.763h1.089
				c1.786,4.234,2.776,8.885,2.776,13.763c0,4.877-0.99,9.528-2.776,13.763H266.415z M247.388,47.23l-4.688,8.119h-15.893
				l-4.688-8.119c3.928-1.501,8.185-2.33,12.634-2.33S243.46,45.729,247.388,47.23z M250.646,80.426L242.7,94.189h-15.893
				l-7.946-13.763l7.946-13.763H242.7L250.646,80.426z M202.003,66.663h1.089l7.946,13.763l-7.946,13.763h-1.089
				c-1.786-4.234-2.776-8.886-2.776-13.763C199.227,75.548,200.217,70.898,202.003,66.663z M222.12,113.622l4.688-8.119h15.893
				l4.688,8.119c-3.928,1.5-8.185,2.33-12.634,2.33S226.048,115.122,222.12,113.622z"/>
		</g>
	</g>
</g>
<g>
</g>
<g>
</g>
<g>
</g>
<g>
</g>
<g>
</g>
<g>
</g>
<g>
</g>
<g>
</g>
<g>
</g>
<g>
</g>
<g>
</g>
<g>
</g>
<g>
</g>
<g>
</g>
<g>
</g>
</svg>
